<mxfile host="app.diagrams.net" modified="2021-08-31T14:13:25.502Z" agent="5.0 (Windows NT 10.0; Win64; x64) AppleWebKit/537.36 (KHTML, like Gecko) Chrome/92.0.4515.159 Safari/537.36" etag="yBXhd3cB6M3j9psyTzgP" version="15.0.3" type="github">
  <diagram id="Jm8AbhTh9HR1tHQFC9yH" name="Page-1">
    <mxGraphModel dx="1422" dy="794" grid="1" gridSize="10" guides="1" tooltips="1" connect="1" arrows="1" fold="1" page="1" pageScale="1" pageWidth="827" pageHeight="1169" math="0" shadow="0">
      <root>
        <mxCell id="0" />
        <mxCell id="1" parent="0" />
        <mxCell id="vB_P8vEvLiJKS9wR8KCA-11" value="" style="rounded=0;whiteSpace=wrap;html=1;" vertex="1" parent="1">
          <mxGeometry x="60" y="210" width="510" height="410" as="geometry" />
        </mxCell>
        <mxCell id="vB_P8vEvLiJKS9wR8KCA-4" value="" style="rounded=0;whiteSpace=wrap;html=1;" vertex="1" parent="1">
          <mxGeometry x="95" y="270" width="190" height="230" as="geometry" />
        </mxCell>
        <mxCell id="vB_P8vEvLiJKS9wR8KCA-1" value="寄存器" style="rounded=0;whiteSpace=wrap;html=1;" vertex="1" parent="1">
          <mxGeometry x="130" y="300" width="120" height="60" as="geometry" />
        </mxCell>
        <mxCell id="vB_P8vEvLiJKS9wR8KCA-2" value="L1缓存" style="rounded=0;whiteSpace=wrap;html=1;" vertex="1" parent="1">
          <mxGeometry x="150" y="380" width="80" height="40" as="geometry" />
        </mxCell>
        <mxCell id="vB_P8vEvLiJKS9wR8KCA-36" style="edgeStyle=orthogonalEdgeStyle;rounded=0;orthogonalLoop=1;jettySize=auto;html=1;entryX=0.5;entryY=1;entryDx=0;entryDy=0;" edge="1" parent="1" source="vB_P8vEvLiJKS9wR8KCA-3" target="vB_P8vEvLiJKS9wR8KCA-2">
          <mxGeometry relative="1" as="geometry" />
        </mxCell>
        <mxCell id="vB_P8vEvLiJKS9wR8KCA-3" value="L2缓存" style="rounded=0;whiteSpace=wrap;html=1;" vertex="1" parent="1">
          <mxGeometry x="150" y="440" width="80" height="40" as="geometry" />
        </mxCell>
        <mxCell id="vB_P8vEvLiJKS9wR8KCA-5" value="核心1" style="text;html=1;strokeColor=none;fillColor=none;align=center;verticalAlign=middle;whiteSpace=wrap;rounded=0;" vertex="1" parent="1">
          <mxGeometry x="170" y="240" width="40" height="20" as="geometry" />
        </mxCell>
        <mxCell id="vB_P8vEvLiJKS9wR8KCA-6" value="" style="rounded=0;whiteSpace=wrap;html=1;" vertex="1" parent="1">
          <mxGeometry x="340" y="270" width="190" height="230" as="geometry" />
        </mxCell>
        <mxCell id="vB_P8vEvLiJKS9wR8KCA-7" value="寄存器" style="rounded=0;whiteSpace=wrap;html=1;" vertex="1" parent="1">
          <mxGeometry x="375" y="300" width="120" height="60" as="geometry" />
        </mxCell>
        <mxCell id="vB_P8vEvLiJKS9wR8KCA-8" value="L1缓存" style="rounded=0;whiteSpace=wrap;html=1;" vertex="1" parent="1">
          <mxGeometry x="395" y="380" width="80" height="40" as="geometry" />
        </mxCell>
        <mxCell id="vB_P8vEvLiJKS9wR8KCA-38" style="edgeStyle=orthogonalEdgeStyle;rounded=0;orthogonalLoop=1;jettySize=auto;html=1;" edge="1" parent="1" source="vB_P8vEvLiJKS9wR8KCA-9" target="vB_P8vEvLiJKS9wR8KCA-8">
          <mxGeometry relative="1" as="geometry" />
        </mxCell>
        <mxCell id="vB_P8vEvLiJKS9wR8KCA-9" value="L2缓存" style="rounded=0;whiteSpace=wrap;html=1;" vertex="1" parent="1">
          <mxGeometry x="395" y="440" width="80" height="40" as="geometry" />
        </mxCell>
        <mxCell id="vB_P8vEvLiJKS9wR8KCA-10" value="核心2" style="text;html=1;strokeColor=none;fillColor=none;align=center;verticalAlign=middle;whiteSpace=wrap;rounded=0;" vertex="1" parent="1">
          <mxGeometry x="415" y="240" width="40" height="20" as="geometry" />
        </mxCell>
        <mxCell id="vB_P8vEvLiJKS9wR8KCA-12" value="CPU1" style="text;html=1;strokeColor=none;fillColor=none;align=center;verticalAlign=middle;whiteSpace=wrap;rounded=0;" vertex="1" parent="1">
          <mxGeometry x="300" y="170" width="40" height="20" as="geometry" />
        </mxCell>
        <mxCell id="vB_P8vEvLiJKS9wR8KCA-32" style="edgeStyle=orthogonalEdgeStyle;rounded=0;orthogonalLoop=1;jettySize=auto;html=1;entryX=0.5;entryY=1;entryDx=0;entryDy=0;" edge="1" parent="1" source="vB_P8vEvLiJKS9wR8KCA-13" target="vB_P8vEvLiJKS9wR8KCA-3">
          <mxGeometry relative="1" as="geometry" />
        </mxCell>
        <mxCell id="vB_P8vEvLiJKS9wR8KCA-37" style="edgeStyle=orthogonalEdgeStyle;rounded=0;orthogonalLoop=1;jettySize=auto;html=1;" edge="1" parent="1" source="vB_P8vEvLiJKS9wR8KCA-13" target="vB_P8vEvLiJKS9wR8KCA-9">
          <mxGeometry relative="1" as="geometry" />
        </mxCell>
        <mxCell id="vB_P8vEvLiJKS9wR8KCA-13" value="L3缓存" style="rounded=0;whiteSpace=wrap;html=1;" vertex="1" parent="1">
          <mxGeometry x="100" y="540" width="430" height="50" as="geometry" />
        </mxCell>
        <mxCell id="vB_P8vEvLiJKS9wR8KCA-14" value="" style="rounded=0;whiteSpace=wrap;html=1;" vertex="1" parent="1">
          <mxGeometry x="630" y="210" width="510" height="410" as="geometry" />
        </mxCell>
        <mxCell id="vB_P8vEvLiJKS9wR8KCA-15" value="" style="rounded=0;whiteSpace=wrap;html=1;" vertex="1" parent="1">
          <mxGeometry x="665" y="270" width="190" height="230" as="geometry" />
        </mxCell>
        <mxCell id="vB_P8vEvLiJKS9wR8KCA-16" value="寄存器" style="rounded=0;whiteSpace=wrap;html=1;" vertex="1" parent="1">
          <mxGeometry x="700" y="300" width="120" height="60" as="geometry" />
        </mxCell>
        <mxCell id="vB_P8vEvLiJKS9wR8KCA-17" value="L1缓存" style="rounded=0;whiteSpace=wrap;html=1;" vertex="1" parent="1">
          <mxGeometry x="720" y="380" width="80" height="40" as="geometry" />
        </mxCell>
        <mxCell id="vB_P8vEvLiJKS9wR8KCA-39" style="edgeStyle=orthogonalEdgeStyle;rounded=0;orthogonalLoop=1;jettySize=auto;html=1;" edge="1" parent="1" source="vB_P8vEvLiJKS9wR8KCA-18" target="vB_P8vEvLiJKS9wR8KCA-17">
          <mxGeometry relative="1" as="geometry" />
        </mxCell>
        <mxCell id="vB_P8vEvLiJKS9wR8KCA-18" value="L2缓存" style="rounded=0;whiteSpace=wrap;html=1;" vertex="1" parent="1">
          <mxGeometry x="720" y="440" width="80" height="40" as="geometry" />
        </mxCell>
        <mxCell id="vB_P8vEvLiJKS9wR8KCA-19" value="核心1" style="text;html=1;strokeColor=none;fillColor=none;align=center;verticalAlign=middle;whiteSpace=wrap;rounded=0;" vertex="1" parent="1">
          <mxGeometry x="740" y="240" width="40" height="20" as="geometry" />
        </mxCell>
        <mxCell id="vB_P8vEvLiJKS9wR8KCA-20" value="" style="rounded=0;whiteSpace=wrap;html=1;" vertex="1" parent="1">
          <mxGeometry x="910" y="270" width="190" height="230" as="geometry" />
        </mxCell>
        <mxCell id="vB_P8vEvLiJKS9wR8KCA-21" value="寄存器" style="rounded=0;whiteSpace=wrap;html=1;" vertex="1" parent="1">
          <mxGeometry x="945" y="300" width="120" height="60" as="geometry" />
        </mxCell>
        <mxCell id="vB_P8vEvLiJKS9wR8KCA-22" value="L1缓存" style="rounded=0;whiteSpace=wrap;html=1;" vertex="1" parent="1">
          <mxGeometry x="965" y="380" width="80" height="40" as="geometry" />
        </mxCell>
        <mxCell id="vB_P8vEvLiJKS9wR8KCA-40" style="edgeStyle=orthogonalEdgeStyle;rounded=0;orthogonalLoop=1;jettySize=auto;html=1;" edge="1" parent="1" source="vB_P8vEvLiJKS9wR8KCA-23" target="vB_P8vEvLiJKS9wR8KCA-22">
          <mxGeometry relative="1" as="geometry" />
        </mxCell>
        <mxCell id="vB_P8vEvLiJKS9wR8KCA-23" value="L2缓存" style="rounded=0;whiteSpace=wrap;html=1;" vertex="1" parent="1">
          <mxGeometry x="965" y="440" width="80" height="40" as="geometry" />
        </mxCell>
        <mxCell id="vB_P8vEvLiJKS9wR8KCA-24" value="核心2" style="text;html=1;strokeColor=none;fillColor=none;align=center;verticalAlign=middle;whiteSpace=wrap;rounded=0;" vertex="1" parent="1">
          <mxGeometry x="985" y="240" width="40" height="20" as="geometry" />
        </mxCell>
        <mxCell id="vB_P8vEvLiJKS9wR8KCA-25" value="CPU2" style="text;html=1;strokeColor=none;fillColor=none;align=center;verticalAlign=middle;whiteSpace=wrap;rounded=0;" vertex="1" parent="1">
          <mxGeometry x="870" y="170" width="40" height="20" as="geometry" />
        </mxCell>
        <mxCell id="vB_P8vEvLiJKS9wR8KCA-33" style="edgeStyle=orthogonalEdgeStyle;rounded=0;orthogonalLoop=1;jettySize=auto;html=1;" edge="1" parent="1" source="vB_P8vEvLiJKS9wR8KCA-26" target="vB_P8vEvLiJKS9wR8KCA-18">
          <mxGeometry relative="1" as="geometry" />
        </mxCell>
        <mxCell id="vB_P8vEvLiJKS9wR8KCA-34" style="edgeStyle=orthogonalEdgeStyle;rounded=0;orthogonalLoop=1;jettySize=auto;html=1;" edge="1" parent="1" source="vB_P8vEvLiJKS9wR8KCA-26" target="vB_P8vEvLiJKS9wR8KCA-23">
          <mxGeometry relative="1" as="geometry" />
        </mxCell>
        <mxCell id="vB_P8vEvLiJKS9wR8KCA-26" value="L3缓存" style="rounded=0;whiteSpace=wrap;html=1;" vertex="1" parent="1">
          <mxGeometry x="670" y="540" width="430" height="50" as="geometry" />
        </mxCell>
        <mxCell id="vB_P8vEvLiJKS9wR8KCA-27" value="多核心" style="text;html=1;strokeColor=none;fillColor=none;align=center;verticalAlign=middle;whiteSpace=wrap;rounded=0;" vertex="1" parent="1">
          <mxGeometry x="580" y="110" width="40" height="30" as="geometry" />
        </mxCell>
        <mxCell id="vB_P8vEvLiJKS9wR8KCA-30" style="edgeStyle=orthogonalEdgeStyle;rounded=0;orthogonalLoop=1;jettySize=auto;html=1;entryX=0.5;entryY=1;entryDx=0;entryDy=0;" edge="1" parent="1" source="vB_P8vEvLiJKS9wR8KCA-28" target="vB_P8vEvLiJKS9wR8KCA-13">
          <mxGeometry relative="1" as="geometry" />
        </mxCell>
        <mxCell id="vB_P8vEvLiJKS9wR8KCA-31" style="edgeStyle=orthogonalEdgeStyle;rounded=0;orthogonalLoop=1;jettySize=auto;html=1;entryX=0.5;entryY=1;entryDx=0;entryDy=0;" edge="1" parent="1" source="vB_P8vEvLiJKS9wR8KCA-28" target="vB_P8vEvLiJKS9wR8KCA-26">
          <mxGeometry relative="1" as="geometry" />
        </mxCell>
        <mxCell id="vB_P8vEvLiJKS9wR8KCA-28" value="内存" style="rounded=0;whiteSpace=wrap;html=1;" vertex="1" parent="1">
          <mxGeometry x="60" y="680" width="1080" height="60" as="geometry" />
        </mxCell>
        <mxCell id="vB_P8vEvLiJKS9wR8KCA-43" value="" style="edgeStyle=orthogonalEdgeStyle;rounded=0;orthogonalLoop=1;jettySize=auto;html=1;" edge="1" parent="1" source="vB_P8vEvLiJKS9wR8KCA-41" target="vB_P8vEvLiJKS9wR8KCA-42">
          <mxGeometry relative="1" as="geometry" />
        </mxCell>
        <mxCell id="vB_P8vEvLiJKS9wR8KCA-41" value="缓存一致性协议：MESI" style="text;html=1;strokeColor=none;fillColor=none;align=center;verticalAlign=middle;whiteSpace=wrap;rounded=0;" vertex="1" parent="1">
          <mxGeometry x="59" y="790" width="130" height="30" as="geometry" />
        </mxCell>
        <mxCell id="vB_P8vEvLiJKS9wR8KCA-45" value="" style="edgeStyle=orthogonalEdgeStyle;rounded=0;orthogonalLoop=1;jettySize=auto;html=1;" edge="1" parent="1" source="vB_P8vEvLiJKS9wR8KCA-42" target="vB_P8vEvLiJKS9wR8KCA-44">
          <mxGeometry relative="1" as="geometry" />
        </mxCell>
        <mxCell id="vB_P8vEvLiJKS9wR8KCA-42" value="volatile关键字" style="whiteSpace=wrap;html=1;" vertex="1" parent="1">
          <mxGeometry x="274" y="775" width="120" height="60" as="geometry" />
        </mxCell>
        <mxCell id="vB_P8vEvLiJKS9wR8KCA-44" value="修饰的内存，会通知所有使用了此变量的所有CPU，以获取最新的内存" style="whiteSpace=wrap;html=1;" vertex="1" parent="1">
          <mxGeometry x="474" y="775" width="120" height="60" as="geometry" />
        </mxCell>
      </root>
    </mxGraphModel>
  </diagram>
</mxfile>
